<?xml version="1.0" encoding="UTF-8" standalone="no"?>
<!DOCTYPE svg PUBLIC "-//W3C//DTD SVG 1.1//EN"
 "http://www.w3.org/Graphics/SVG/1.1/DTD/svg11.dtd">
<!-- Generated by graphviz version 6.0.2 (20221011.1828)
 -->
<!-- Title: G Pages: 1 -->
<svg width="545pt" height="359pt"
 viewBox="0.00 0.00 545.00 359.00" xmlns="http://www.w3.org/2000/svg" xmlns:xlink="http://www.w3.org/1999/xlink">
<g id="graph0" class="graph" transform="scale(1 1) rotate(0) translate(4 355)">
<title>G</title>
<polygon fill="white" stroke="none" points="-4,4 -4,-355 541,-355 541,4 -4,4"/>
<!-- Node_0 -->
<g id="node1" class="node">
<title>Node_0</title>
<path fill="#56db70" stroke="black" d="M67.5,-258.5C67.5,-258.5 374.5,-258.5 374.5,-258.5 380.5,-258.5 386.5,-264.5 386.5,-270.5 386.5,-270.5 386.5,-338.5 386.5,-338.5 386.5,-344.5 380.5,-350.5 374.5,-350.5 374.5,-350.5 67.5,-350.5 67.5,-350.5 61.5,-350.5 55.5,-344.5 55.5,-338.5 55.5,-338.5 55.5,-270.5 55.5,-270.5 55.5,-264.5 61.5,-258.5 67.5,-258.5"/>
<text text-anchor="start" x="143" y="-336.3" font-family="Times New Roman,serif" font-size="14.00">ptr: </text>
<text text-anchor="start" x="166" y="-336.3" font-family="monospace" font-size="14.00" fill="#917df9">000002cef5937c00</text>
<polyline fill="none" stroke="black" points="55.5,-327.5 386.5,-327.5"/>
<text text-anchor="start" x="165" y="-312.3" font-family="Times New Roman,serif" font-size="14.00">type: OPERATION</text>
<polyline fill="none" stroke="black" points="55.5,-304.5 386.5,-304.5"/>
<text text-anchor="start" x="194.5" y="-289.3" font-family="Times New Roman,serif" font-size="14.00">val: MUL</text>
<polyline fill="none" stroke="black" points="55.5,-281.5 386.5,-281.5"/>
<text text-anchor="start" x="63.5" y="-267.3" font-family="Times New Roman,serif" font-size="14.00">L: </text>
<text text-anchor="start" x="79.5" y="-267.3" font-family="monospace" font-size="14.00" fill="#415259">000002cef5937c60</text>
<polyline fill="none" stroke="black" points="220.5,-258.5 220.5,-281.5"/>
<text text-anchor="start" x="228.5" y="-267.3" font-family="Times New Roman,serif" font-size="14.00">R: </text>
<text text-anchor="start" x="245.5" y="-267.3" font-family="monospace" font-size="14.00" fill="#b68a99">000002cef5937ca0</text>
</g>
<!-- Node_1 -->
<g id="node2" class="node">
<title>Node_1</title>
<path fill="#56db70" stroke="black" d="M12,-129.5C12,-129.5 160,-129.5 160,-129.5 166,-129.5 172,-135.5 172,-141.5 172,-141.5 172,-209.5 172,-209.5 172,-215.5 166,-221.5 160,-221.5 160,-221.5 12,-221.5 12,-221.5 6,-221.5 0,-215.5 0,-209.5 0,-209.5 0,-141.5 0,-141.5 0,-135.5 6,-129.5 12,-129.5"/>
<text text-anchor="start" x="8" y="-207.3" font-family="Times New Roman,serif" font-size="14.00">ptr: </text>
<text text-anchor="start" x="31" y="-207.3" font-family="monospace" font-size="14.00" fill="#415259">000002cef5937c60</text>
<polyline fill="none" stroke="black" points="0,-198.5 172,-198.5"/>
<text text-anchor="start" x="28" y="-183.3" font-family="Times New Roman,serif" font-size="14.00">type: PARAMETER</text>
<polyline fill="none" stroke="black" points="0,-175.5 172,-175.5"/>
<text text-anchor="start" x="71" y="-160.3" font-family="Times New Roman,serif" font-size="14.00">x = 5</text>
<polyline fill="none" stroke="black" points="0,-152.5 172,-152.5"/>
<text text-anchor="start" x="15.5" y="-138.3" font-family="Times New Roman,serif" font-size="14.00">L: </text>
<text text-anchor="start" x="31.5" y="-138.3" font-family="monospace" font-size="14.00" fill="blue">NULL</text>
<polyline fill="none" stroke="black" points="81,-129.5 81,-152.5"/>
<text text-anchor="start" x="97" y="-138.3" font-family="Times New Roman,serif" font-size="14.00">R: </text>
<text text-anchor="start" x="114" y="-138.3" font-family="monospace" font-size="14.00" fill="blue"> NULL</text>
</g>
<!-- Node_0&#45;&gt;Node_1 -->
<g id="edge1" class="edge">
<title>Node_0&#45;&gt;Node_1</title>
<path fill="none" stroke="black" d="M173.02,-258.37C162.9,-248.84 152.14,-238.72 141.75,-228.95"/>
<polygon fill="black" stroke="black" points="143.96,-226.22 134.28,-221.92 139.16,-231.32 143.96,-226.22"/>
</g>
<!-- Node_2 -->
<g id="node3" class="node">
<title>Node_2</title>
<path fill="#56db70" stroke="black" d="M202.5,-129.5C202.5,-129.5 509.5,-129.5 509.5,-129.5 515.5,-129.5 521.5,-135.5 521.5,-141.5 521.5,-141.5 521.5,-209.5 521.5,-209.5 521.5,-215.5 515.5,-221.5 509.5,-221.5 509.5,-221.5 202.5,-221.5 202.5,-221.5 196.5,-221.5 190.5,-215.5 190.5,-209.5 190.5,-209.5 190.5,-141.5 190.5,-141.5 190.5,-135.5 196.5,-129.5 202.5,-129.5"/>
<text text-anchor="start" x="278" y="-207.3" font-family="Times New Roman,serif" font-size="14.00">ptr: </text>
<text text-anchor="start" x="301" y="-207.3" font-family="monospace" font-size="14.00" fill="#b68a99">000002cef5937ca0</text>
<polyline fill="none" stroke="black" points="190.5,-198.5 521.5,-198.5"/>
<text text-anchor="start" x="300" y="-183.3" font-family="Times New Roman,serif" font-size="14.00">type: OPERATION</text>
<polyline fill="none" stroke="black" points="190.5,-175.5 521.5,-175.5"/>
<text text-anchor="start" x="330" y="-160.3" font-family="Times New Roman,serif" font-size="14.00">val: ADD</text>
<polyline fill="none" stroke="black" points="190.5,-152.5 521.5,-152.5"/>
<text text-anchor="start" x="198.5" y="-138.3" font-family="Times New Roman,serif" font-size="14.00">L: </text>
<text text-anchor="start" x="214.5" y="-138.3" font-family="monospace" font-size="14.00" fill="#c0939b">000002cef5937e20</text>
<polyline fill="none" stroke="black" points="355.5,-129.5 355.5,-152.5"/>
<text text-anchor="start" x="363.5" y="-138.3" font-family="Times New Roman,serif" font-size="14.00">R: </text>
<text text-anchor="start" x="380.5" y="-138.3" font-family="monospace" font-size="14.00" fill="#f126b9">000002cef5937cc0</text>
</g>
<!-- Node_0&#45;&gt;Node_2 -->
<g id="edge2" class="edge">
<title>Node_0&#45;&gt;Node_2</title>
<path fill="none" stroke="black" d="M268.98,-258.37C279.1,-248.84 289.86,-238.72 300.25,-228.95"/>
<polygon fill="black" stroke="black" points="302.84,-231.32 307.72,-221.92 298.04,-226.22 302.84,-231.32"/>
</g>
<!-- Node_3 -->
<g id="node4" class="node">
<title>Node_3</title>
<path fill="#56db70" stroke="black" d="M187,-0.5C187,-0.5 335,-0.5 335,-0.5 341,-0.5 347,-6.5 347,-12.5 347,-12.5 347,-80.5 347,-80.5 347,-86.5 341,-92.5 335,-92.5 335,-92.5 187,-92.5 187,-92.5 181,-92.5 175,-86.5 175,-80.5 175,-80.5 175,-12.5 175,-12.5 175,-6.5 181,-0.5 187,-0.5"/>
<text text-anchor="start" x="183" y="-78.3" font-family="Times New Roman,serif" font-size="14.00">ptr: </text>
<text text-anchor="start" x="206" y="-78.3" font-family="monospace" font-size="14.00" fill="#c0939b">000002cef5937e20</text>
<polyline fill="none" stroke="black" points="175,-69.5 347,-69.5"/>
<text text-anchor="start" x="203" y="-54.3" font-family="Times New Roman,serif" font-size="14.00">type: PARAMETER</text>
<polyline fill="none" stroke="black" points="175,-46.5 347,-46.5"/>
<text text-anchor="start" x="246" y="-31.3" font-family="Times New Roman,serif" font-size="14.00">x = 5</text>
<polyline fill="none" stroke="black" points="175,-23.5 347,-23.5"/>
<text text-anchor="start" x="190.5" y="-9.3" font-family="Times New Roman,serif" font-size="14.00">L: </text>
<text text-anchor="start" x="206.5" y="-9.3" font-family="monospace" font-size="14.00" fill="blue">NULL</text>
<polyline fill="none" stroke="black" points="256,-0.5 256,-23.5"/>
<text text-anchor="start" x="272" y="-9.3" font-family="Times New Roman,serif" font-size="14.00">R: </text>
<text text-anchor="start" x="289" y="-9.3" font-family="monospace" font-size="14.00" fill="blue"> NULL</text>
</g>
<!-- Node_2&#45;&gt;Node_3 -->
<g id="edge3" class="edge">
<title>Node_2&#45;&gt;Node_3</title>
<path fill="none" stroke="black" d="M322.24,-129.37C315.39,-120.21 308.13,-110.5 301.09,-101.09"/>
<polygon fill="black" stroke="black" points="303.76,-98.83 294.97,-92.92 298.16,-103.02 303.76,-98.83"/>
</g>
<!-- Node_4 -->
<g id="node5" class="node">
<title>Node_4</title>
<path fill="#56db70" stroke="black" d="M377,-0.5C377,-0.5 525,-0.5 525,-0.5 531,-0.5 537,-6.5 537,-12.5 537,-12.5 537,-80.5 537,-80.5 537,-86.5 531,-92.5 525,-92.5 525,-92.5 377,-92.5 377,-92.5 371,-92.5 365,-86.5 365,-80.5 365,-80.5 365,-12.5 365,-12.5 365,-6.5 371,-0.5 377,-0.5"/>
<text text-anchor="start" x="373" y="-78.3" font-family="Times New Roman,serif" font-size="14.00">ptr: </text>
<text text-anchor="start" x="396" y="-78.3" font-family="monospace" font-size="14.00" fill="#f126b9">000002cef5937cc0</text>
<polyline fill="none" stroke="black" points="365,-69.5 537,-69.5"/>
<text text-anchor="start" x="406" y="-54.3" font-family="Times New Roman,serif" font-size="14.00">type: NUMBER</text>
<polyline fill="none" stroke="black" points="365,-46.5 537,-46.5"/>
<text text-anchor="start" x="436" y="-31.3" font-family="Times New Roman,serif" font-size="14.00">val: 6</text>
<polyline fill="none" stroke="black" points="365,-23.5 537,-23.5"/>
<text text-anchor="start" x="380.5" y="-9.3" font-family="Times New Roman,serif" font-size="14.00">L: </text>
<text text-anchor="start" x="396.5" y="-9.3" font-family="monospace" font-size="14.00" fill="blue">NULL</text>
<polyline fill="none" stroke="black" points="446,-0.5 446,-23.5"/>
<text text-anchor="start" x="462" y="-9.3" font-family="Times New Roman,serif" font-size="14.00">R: </text>
<text text-anchor="start" x="479" y="-9.3" font-family="monospace" font-size="14.00" fill="blue"> NULL</text>
</g>
<!-- Node_2&#45;&gt;Node_4 -->
<g id="edge4" class="edge">
<title>Node_2&#45;&gt;Node_4</title>
<path fill="none" stroke="black" d="M389.76,-129.37C396.61,-120.21 403.87,-110.5 410.91,-101.09"/>
<polygon fill="black" stroke="black" points="413.84,-103.02 417.03,-92.92 408.24,-98.83 413.84,-103.02"/>
</g>
</g>
</svg>
