<?xml version="1.0" encoding="UTF-8" standalone="no"?>
<!DOCTYPE svg PUBLIC "-//W3C//DTD SVG 1.1//EN"
 "http://www.w3.org/Graphics/SVG/1.1/DTD/svg11.dtd">
<!-- Generated by graphviz version 6.0.2 (20221011.1828)
 -->
<!-- Title: G Pages: 1 -->
<svg width="370pt" height="230pt"
 viewBox="0.00 0.00 370.00 230.00" xmlns="http://www.w3.org/2000/svg" xmlns:xlink="http://www.w3.org/1999/xlink">
<g id="graph0" class="graph" transform="scale(1 1) rotate(0) translate(4 226)">
<title>G</title>
<polygon fill="white" stroke="none" points="-4,4 -4,-226 366,-226 366,4 -4,4"/>
<!-- Node_0 -->
<g id="node1" class="node">
<title>Node_0</title>
<path fill="#56db70" stroke="black" d="M27.5,-129.5C27.5,-129.5 334.5,-129.5 334.5,-129.5 340.5,-129.5 346.5,-135.5 346.5,-141.5 346.5,-141.5 346.5,-209.5 346.5,-209.5 346.5,-215.5 340.5,-221.5 334.5,-221.5 334.5,-221.5 27.5,-221.5 27.5,-221.5 21.5,-221.5 15.5,-215.5 15.5,-209.5 15.5,-209.5 15.5,-141.5 15.5,-141.5 15.5,-135.5 21.5,-129.5 27.5,-129.5"/>
<text text-anchor="start" x="103" y="-207.3" font-family="Times New Roman,serif" font-size="14.00">ptr: </text>
<text text-anchor="start" x="126" y="-207.3" font-family="monospace" font-size="14.00" fill="#b68a99">000002cef5937ca0</text>
<polyline fill="none" stroke="black" points="15.5,-198.5 346.5,-198.5"/>
<text text-anchor="start" x="125" y="-183.3" font-family="Times New Roman,serif" font-size="14.00">type: OPERATION</text>
<polyline fill="none" stroke="black" points="15.5,-175.5 346.5,-175.5"/>
<text text-anchor="start" x="155" y="-160.3" font-family="Times New Roman,serif" font-size="14.00">val: ADD</text>
<polyline fill="none" stroke="black" points="15.5,-152.5 346.5,-152.5"/>
<text text-anchor="start" x="23.5" y="-138.3" font-family="Times New Roman,serif" font-size="14.00">L: </text>
<text text-anchor="start" x="39.5" y="-138.3" font-family="monospace" font-size="14.00" fill="#c0939b">000002cef5937e20</text>
<polyline fill="none" stroke="black" points="180.5,-129.5 180.5,-152.5"/>
<text text-anchor="start" x="188.5" y="-138.3" font-family="Times New Roman,serif" font-size="14.00">R: </text>
<text text-anchor="start" x="205.5" y="-138.3" font-family="monospace" font-size="14.00" fill="#f126b9">000002cef5937cc0</text>
</g>
<!-- Node_1 -->
<g id="node2" class="node">
<title>Node_1</title>
<path fill="#56db70" stroke="black" d="M12,-0.5C12,-0.5 160,-0.5 160,-0.5 166,-0.5 172,-6.5 172,-12.5 172,-12.5 172,-80.5 172,-80.5 172,-86.5 166,-92.5 160,-92.5 160,-92.5 12,-92.5 12,-92.5 6,-92.5 0,-86.5 0,-80.5 0,-80.5 0,-12.5 0,-12.5 0,-6.5 6,-0.5 12,-0.5"/>
<text text-anchor="start" x="8" y="-78.3" font-family="Times New Roman,serif" font-size="14.00">ptr: </text>
<text text-anchor="start" x="31" y="-78.3" font-family="monospace" font-size="14.00" fill="#c0939b">000002cef5937e20</text>
<polyline fill="none" stroke="black" points="0,-69.5 172,-69.5"/>
<text text-anchor="start" x="28" y="-54.3" font-family="Times New Roman,serif" font-size="14.00">type: PARAMETER</text>
<polyline fill="none" stroke="black" points="0,-46.5 172,-46.5"/>
<text text-anchor="start" x="71" y="-31.3" font-family="Times New Roman,serif" font-size="14.00">x = 5</text>
<polyline fill="none" stroke="black" points="0,-23.5 172,-23.5"/>
<text text-anchor="start" x="15.5" y="-9.3" font-family="Times New Roman,serif" font-size="14.00">L: </text>
<text text-anchor="start" x="31.5" y="-9.3" font-family="monospace" font-size="14.00" fill="blue">NULL</text>
<polyline fill="none" stroke="black" points="81,-0.5 81,-23.5"/>
<text text-anchor="start" x="97" y="-9.3" font-family="Times New Roman,serif" font-size="14.00">R: </text>
<text text-anchor="start" x="114" y="-9.3" font-family="monospace" font-size="14.00" fill="blue"> NULL</text>
</g>
<!-- Node_0&#45;&gt;Node_1 -->
<g id="edge1" class="edge">
<title>Node_0&#45;&gt;Node_1</title>
<path fill="none" stroke="black" d="M147.24,-129.37C140.39,-120.21 133.13,-110.5 126.09,-101.09"/>
<polygon fill="black" stroke="black" points="128.76,-98.83 119.97,-92.92 123.16,-103.02 128.76,-98.83"/>
</g>
<!-- Node_2 -->
<g id="node3" class="node">
<title>Node_2</title>
<path fill="#56db70" stroke="black" d="M202,-0.5C202,-0.5 350,-0.5 350,-0.5 356,-0.5 362,-6.5 362,-12.5 362,-12.5 362,-80.5 362,-80.5 362,-86.5 356,-92.5 350,-92.5 350,-92.5 202,-92.5 202,-92.5 196,-92.5 190,-86.5 190,-80.5 190,-80.5 190,-12.5 190,-12.5 190,-6.5 196,-0.5 202,-0.5"/>
<text text-anchor="start" x="198" y="-78.3" font-family="Times New Roman,serif" font-size="14.00">ptr: </text>
<text text-anchor="start" x="221" y="-78.3" font-family="monospace" font-size="14.00" fill="#f126b9">000002cef5937cc0</text>
<polyline fill="none" stroke="black" points="190,-69.5 362,-69.5"/>
<text text-anchor="start" x="231" y="-54.3" font-family="Times New Roman,serif" font-size="14.00">type: NUMBER</text>
<polyline fill="none" stroke="black" points="190,-46.5 362,-46.5"/>
<text text-anchor="start" x="261" y="-31.3" font-family="Times New Roman,serif" font-size="14.00">val: 6</text>
<polyline fill="none" stroke="black" points="190,-23.5 362,-23.5"/>
<text text-anchor="start" x="205.5" y="-9.3" font-family="Times New Roman,serif" font-size="14.00">L: </text>
<text text-anchor="start" x="221.5" y="-9.3" font-family="monospace" font-size="14.00" fill="blue">NULL</text>
<polyline fill="none" stroke="black" points="271,-0.5 271,-23.5"/>
<text text-anchor="start" x="287" y="-9.3" font-family="Times New Roman,serif" font-size="14.00">R: </text>
<text text-anchor="start" x="304" y="-9.3" font-family="monospace" font-size="14.00" fill="blue"> NULL</text>
</g>
<!-- Node_0&#45;&gt;Node_2 -->
<g id="edge2" class="edge">
<title>Node_0&#45;&gt;Node_2</title>
<path fill="none" stroke="black" d="M214.76,-129.37C221.61,-120.21 228.87,-110.5 235.91,-101.09"/>
<polygon fill="black" stroke="black" points="238.84,-103.02 242.03,-92.92 233.24,-98.83 238.84,-103.02"/>
</g>
</g>
</svg>
