<?xml version="1.0" encoding="UTF-8" standalone="no"?>
<!DOCTYPE svg PUBLIC "-//W3C//DTD SVG 1.1//EN"
 "http://www.w3.org/Graphics/SVG/1.1/DTD/svg11.dtd">
<!-- Generated by graphviz version 6.0.2 (20221011.1828)
 -->
<!-- Title: G Pages: 1 -->
<svg width="180pt" height="101pt"
 viewBox="0.00 0.00 180.00 101.00" xmlns="http://www.w3.org/2000/svg" xmlns:xlink="http://www.w3.org/1999/xlink">
<g id="graph0" class="graph" transform="scale(1 1) rotate(0) translate(4 97)">
<title>G</title>
<polygon fill="white" stroke="none" points="-4,4 -4,-97 176,-97 176,4 -4,4"/>
<!-- Node_0 -->
<g id="node1" class="node">
<title>Node_0</title>
<path fill="#56db70" stroke="black" d="M12,-0.5C12,-0.5 160,-0.5 160,-0.5 166,-0.5 172,-6.5 172,-12.5 172,-12.5 172,-80.5 172,-80.5 172,-86.5 166,-92.5 160,-92.5 160,-92.5 12,-92.5 12,-92.5 6,-92.5 0,-86.5 0,-80.5 0,-80.5 0,-12.5 0,-12.5 0,-6.5 6,-0.5 12,-0.5"/>
<text text-anchor="start" x="8" y="-78.3" font-family="Times New Roman,serif" font-size="14.00">ptr: </text>
<text text-anchor="start" x="31" y="-78.3" font-family="monospace" font-size="14.00" fill="#b68a99">000002cef5937ca0</text>
<polyline fill="none" stroke="black" points="0,-69.5 172,-69.5"/>
<text text-anchor="start" x="30" y="-54.3" font-family="Times New Roman,serif" font-size="14.00">type: OPERATION</text>
<polyline fill="none" stroke="black" points="0,-46.5 172,-46.5"/>
<text text-anchor="start" x="60" y="-31.3" font-family="Times New Roman,serif" font-size="14.00">val: ADD</text>
<polyline fill="none" stroke="black" points="0,-23.5 172,-23.5"/>
<text text-anchor="start" x="15.5" y="-9.3" font-family="Times New Roman,serif" font-size="14.00">L: </text>
<text text-anchor="start" x="31.5" y="-9.3" font-family="monospace" font-size="14.00" fill="blue">NULL</text>
<polyline fill="none" stroke="black" points="81,-0.5 81,-23.5"/>
<text text-anchor="start" x="97" y="-9.3" font-family="Times New Roman,serif" font-size="14.00">R: </text>
<text text-anchor="start" x="114" y="-9.3" font-family="monospace" font-size="14.00" fill="blue"> NULL</text>
</g>
</g>
</svg>
