<?xml version="1.0" encoding="UTF-8" standalone="no"?>
<!DOCTYPE svg PUBLIC "-//W3C//DTD SVG 1.1//EN"
 "http://www.w3.org/Graphics/SVG/1.1/DTD/svg11.dtd">
<!-- Generated by graphviz version 6.0.2 (20221011.1828)
 -->
<!-- Title: G Pages: 1 -->
<svg width="248pt" height="230pt"
 viewBox="0.00 0.00 248.00 230.00" xmlns="http://www.w3.org/2000/svg" xmlns:xlink="http://www.w3.org/1999/xlink">
<g id="graph0" class="graph" transform="scale(1 1) rotate(0) translate(4 226)">
<title>G</title>
<polygon fill="white" stroke="none" points="-4,4 -4,-226 244,-226 244,4 -4,4"/>
<!-- Node_0 -->
<g id="node1" class="node">
<title>Node_0</title>
<path fill="#56db70" stroke="black" d="M12,-129.5C12,-129.5 228,-129.5 228,-129.5 234,-129.5 240,-135.5 240,-141.5 240,-141.5 240,-209.5 240,-209.5 240,-215.5 234,-221.5 228,-221.5 228,-221.5 12,-221.5 12,-221.5 6,-221.5 0,-215.5 0,-209.5 0,-209.5 0,-141.5 0,-141.5 0,-135.5 6,-129.5 12,-129.5"/>
<text text-anchor="start" x="42" y="-207.3" font-family="Times New Roman,serif" font-size="14.00">ptr: </text>
<text text-anchor="start" x="65" y="-207.3" font-family="monospace" font-size="14.00" fill="#b68a99">000002cef5937ca0</text>
<polyline fill="none" stroke="black" points="0,-198.5 240,-198.5"/>
<text text-anchor="start" x="64" y="-183.3" font-family="Times New Roman,serif" font-size="14.00">type: OPERATION</text>
<polyline fill="none" stroke="black" points="0,-175.5 240,-175.5"/>
<text text-anchor="start" x="94" y="-160.3" font-family="Times New Roman,serif" font-size="14.00">val: ADD</text>
<polyline fill="none" stroke="black" points="0,-152.5 240,-152.5"/>
<text text-anchor="start" x="8" y="-138.3" font-family="Times New Roman,serif" font-size="14.00">L: </text>
<text text-anchor="start" x="24" y="-138.3" font-family="monospace" font-size="14.00" fill="#c0939b">000002cef5937e20</text>
<polyline fill="none" stroke="black" points="165,-129.5 165,-152.5"/>
<text text-anchor="start" x="173" y="-138.3" font-family="Times New Roman,serif" font-size="14.00">R: </text>
<text text-anchor="start" x="190" y="-138.3" font-family="monospace" font-size="14.00" fill="blue"> NULL</text>
</g>
<!-- Node_1 -->
<g id="node2" class="node">
<title>Node_1</title>
<path fill="#56db70" stroke="black" d="M46,-0.5C46,-0.5 194,-0.5 194,-0.5 200,-0.5 206,-6.5 206,-12.5 206,-12.5 206,-80.5 206,-80.5 206,-86.5 200,-92.5 194,-92.5 194,-92.5 46,-92.5 46,-92.5 40,-92.5 34,-86.5 34,-80.5 34,-80.5 34,-12.5 34,-12.5 34,-6.5 40,-0.5 46,-0.5"/>
<text text-anchor="start" x="42" y="-78.3" font-family="Times New Roman,serif" font-size="14.00">ptr: </text>
<text text-anchor="start" x="65" y="-78.3" font-family="monospace" font-size="14.00" fill="#c0939b">000002cef5937e20</text>
<polyline fill="none" stroke="black" points="34,-69.5 206,-69.5"/>
<text text-anchor="start" x="62" y="-54.3" font-family="Times New Roman,serif" font-size="14.00">type: PARAMETER</text>
<polyline fill="none" stroke="black" points="34,-46.5 206,-46.5"/>
<text text-anchor="start" x="105" y="-31.3" font-family="Times New Roman,serif" font-size="14.00">x = 5</text>
<polyline fill="none" stroke="black" points="34,-23.5 206,-23.5"/>
<text text-anchor="start" x="49.5" y="-9.3" font-family="Times New Roman,serif" font-size="14.00">L: </text>
<text text-anchor="start" x="65.5" y="-9.3" font-family="monospace" font-size="14.00" fill="blue">NULL</text>
<polyline fill="none" stroke="black" points="115,-0.5 115,-23.5"/>
<text text-anchor="start" x="131" y="-9.3" font-family="Times New Roman,serif" font-size="14.00">R: </text>
<text text-anchor="start" x="148" y="-9.3" font-family="monospace" font-size="14.00" fill="blue"> NULL</text>
</g>
<!-- Node_0&#45;&gt;Node_1 -->
<g id="edge1" class="edge">
<title>Node_0&#45;&gt;Node_1</title>
<path fill="none" stroke="black" d="M120,-129.37C120,-120.86 120,-111.87 120,-103.09"/>
<polygon fill="black" stroke="black" points="123.5,-102.92 120,-92.92 116.5,-102.92 123.5,-102.92"/>
</g>
</g>
</svg>
